<svg xmlns="http://www.w3.org/2000/svg" viewBox="0 0 512 512">
  <defs>
    <linearGradient id="felt" x1="0" x2="1" y1="0" y2="1">
      <stop offset="0" stop-color="#10251c"/>
      <stop offset="1" stop-color="#06100d"/>
    </linearGradient>
    <linearGradient id="back" x1="0" x2="1" y1="0" y2="1">
      <stop offset="0" stop-color="#223456"/>
      <stop offset="1" stop-color="#101b2f"/>
    </linearGradient>
    <filter id="shadow" color-interpolation-filters="sRGB" x="-40%" y="-40%" width="180%" height="180%">
      <feDropShadow dx="0" dy="18" stdDeviation="16" flood-color="#020705" flood-opacity="0.58"/>
    </filter>
  </defs>
  <rect width="512" height="512" rx="112" fill="url(#felt)"/>
  <circle cx="98" cy="82" r="54" fill="#f5e6c8" opacity="0.06"/>
  <circle cx="430" cy="418" r="92" fill="#0f9f58" opacity="0.08"/>
  <g filter="url(#shadow)">
    <g transform="rotate(-13 185 273)">
      <rect x="82" y="108" width="150" height="232" rx="24" fill="#1d4ed8" stroke="#80a7ff" stroke-width="8"/>
      <text x="157" y="205" fill="#f8fbff" font-family="Georgia, serif" font-size="56" font-weight="900" text-anchor="middle">-2</text>
      <text x="157" y="296" fill="#f8fbff" font-family="Georgia, serif" font-size="34" font-style="italic" font-weight="900" letter-spacing="4" text-anchor="middle">SKY</text>
    </g>
    <g transform="rotate(12 332 275)">
      <rect x="280" y="116" width="150" height="232" rx="24" fill="#d71e24" stroke="#ff8a8a" stroke-width="8"/>
      <text x="355" y="207" fill="#fff5ee" font-family="Georgia, serif" font-size="56" font-weight="900" text-anchor="middle">12</text>
      <text x="355" y="297" fill="#fff5ee" font-family="Georgia, serif" font-size="34" font-style="italic" font-weight="900" letter-spacing="4" text-anchor="middle">JO</text>
    </g>
    <rect x="138" y="76" width="236" height="348" rx="34" fill="url(#back)" stroke="#f5e6c8" stroke-width="14"/>
    <rect x="162" y="104" width="188" height="292" rx="22" fill="#182744" stroke="#5f789e" stroke-width="7"/>
    <rect x="185" y="132" width="142" height="82" rx="18" fill="#109653" stroke="#51e08b" stroke-width="7"/>
    <text x="256" y="190" fill="#f8fff8" font-family="Georgia, serif" font-size="52" font-weight="900" text-anchor="middle">3</text>
    <text x="256" y="305" fill="#f5e6c8" font-family="Georgia, serif" font-size="52" font-style="italic" font-weight="900" letter-spacing="2" text-anchor="middle">SKYJO</text>
    <path d="M191 340h130" stroke="#f5e6c8" stroke-linecap="round" stroke-width="9" opacity="0.82"/>
  </g>
</svg>
